<svg width="16" height="16" viewBox="0 0 16 16" fill="none" xmlns="http://www.w3.org/2000/svg">
<path d="M7.29384 3.1973H2.81088C2.47117 3.1973 2.14539 3.33224 1.90518 3.57244C1.66498 3.81264 1.53003 4.13842 1.53003 4.47812V13.4439C1.53003 13.7836 1.66498 14.1094 1.90518 14.3496C2.14539 14.5898 2.47117 14.7247 2.81088 14.7247H11.7768C12.1165 14.7247 12.4423 14.5898 12.6825 14.3496C12.9227 14.1094 13.0577 13.7836 13.0577 13.4439V8.961" stroke="#F1F1F1" stroke-width="2" stroke-linecap="round" stroke-linejoin="round"/>
<path d="M7.29384 3.1973H2.81088C2.47117 3.1973 2.14539 3.33224 1.90518 3.57244C1.66498 3.81264 1.53003 4.13842 1.53003 4.47812V13.4439C1.53003 13.7836 1.66498 14.1094 1.90518 14.3496C2.14539 14.5898 2.47117 14.7247 2.81088 14.7247H11.7768C12.1165 14.7247 12.4423 14.5898 12.6825 14.3496C12.9227 14.1094 13.0577 13.7836 13.0577 13.4439V8.961" stroke="#F1F1F1" stroke-width="2" stroke-linecap="round" stroke-linejoin="round"/>
<path d="M12.097 2.23652C12.3518 1.98175 12.6973 1.83862 13.0576 1.83862C13.4179 1.83862 13.7635 1.98175 14.0183 2.23652C14.273 2.49129 14.4162 2.83684 14.4162 3.19714C14.4162 3.55744 14.273 3.90298 14.0183 4.15776L7.93425 10.2417L5.37256 10.8821L6.01298 8.32043L12.097 2.23652Z" stroke="#F1F1F1" stroke-width="2" stroke-linecap="round" stroke-linejoin="round"/>
<path d="M12.097 2.23652C12.3518 1.98175 12.6973 1.83862 13.0576 1.83862C13.4179 1.83862 13.7635 1.98175 14.0183 2.23652C14.273 2.49129 14.4162 2.83684 14.4162 3.19714C14.4162 3.55744 14.273 3.90298 14.0183 4.15776L7.93425 10.2417L5.37256 10.8821L6.01298 8.32043L12.097 2.23652Z" stroke="#F1F1F1" stroke-width="2" stroke-linecap="round" stroke-linejoin="round"/>
</svg>
