<svg width="14" height="16" viewBox="0 0 14 16" fill="none" xmlns="http://www.w3.org/2000/svg">
<path d="M1.23962 4.47794H2.52047H12.7672" stroke="#F1F1F1" stroke-width="2" stroke-linecap="round" stroke-linejoin="round"/>
<path d="M4.44178 4.47778V3.19696C4.44178 2.85726 4.57672 2.53148 4.81693 2.29128C5.05714 2.05108 5.38292 1.91614 5.72262 1.91614H8.28432C8.62402 1.91614 8.94981 2.05108 9.19001 2.29128C9.43022 2.53148 9.56517 2.85726 9.56517 3.19696V4.47778M11.4864 4.47778V13.4435C11.4864 13.7832 11.3515 14.109 11.1113 14.3492C10.8711 14.5894 10.5453 14.7244 10.2056 14.7244H3.80135C3.46165 14.7244 3.13586 14.5894 2.89566 14.3492C2.65545 14.109 2.52051 13.7832 2.52051 13.4435V4.47778H11.4864Z" stroke="#F1F1F1" stroke-width="2" stroke-linecap="round" stroke-linejoin="round"/>
<path d="M4.44178 4.47778V3.19696C4.44178 2.85726 4.57672 2.53148 4.81693 2.29128C5.05714 2.05108 5.38292 1.91614 5.72262 1.91614H8.28432C8.62402 1.91614 8.94981 2.05108 9.19001 2.29128C9.43022 2.53148 9.56517 2.85726 9.56517 3.19696V4.47778M11.4864 4.47778V13.4435C11.4864 13.7832 11.3515 14.109 11.1113 14.3492C10.8711 14.5894 10.5453 14.7244 10.2056 14.7244H3.80135C3.46165 14.7244 3.13586 14.5894 2.89566 14.3492C2.65545 14.109 2.52051 13.7832 2.52051 13.4435V4.47778H11.4864Z" stroke="#F1F1F1" stroke-width="2" stroke-linecap="round" stroke-linejoin="round"/>
<path d="M5.72253 7.67999V11.5225" stroke="#F1F1F1" stroke-width="2" stroke-linecap="round" stroke-linejoin="round"/>
<path d="M5.72253 7.67999V11.5225" stroke="#F1F1F1" stroke-width="2" stroke-linecap="round" stroke-linejoin="round"/>
<path d="M8.28442 7.67999V11.5225" stroke="#F1F1F1" stroke-width="2" stroke-linecap="round" stroke-linejoin="round"/>
</svg>
